<svg xmlns="http://www.w3.org/2000/svg" width="196.96" height="29.92" viewBox="0 0 196.96 29.92">
  <path id="logo" d="M5.68-.64H1.76a.368.368,0,0,0-.4.36.386.386,0,0,0,.44.4c.32,0,4.28-.2,5.96-.2,1.64,0,3.48.2,5.12.2,4.44,0,10.68-1.36,10.68-7.44,0-4.6-3.56-6.84-7.84-7.48,4-.52,7.2-2.72,7.2-6.92,0-6.08-6.52-6.84-10.44-6.84-1.24,0-2.64.08-3.72.08-1.36,0-6.6-.12-6.88-.12-.44,0-.52.16-.52.36a.377.377,0,0,0,.4.4H5.68Zm4-.12V-14.4h.52c4.08,0,9.2.28,9.2,6.96,0,6.4-4.76,6.68-8.6,6.68Zm0-14.4V-27.84H9.8c3.84,0,8.96.04,8.96,6.48,0,6.12-4.6,6.2-8.56,6.2Zm32.8,5.52c.32,0,.56-.04.56-.4a5.738,5.738,0,0,0-.16-.88c-.84-3.44-3.2-6.4-7.2-6.4-5.04,0-8.6,4.28-8.6,9.16A8.316,8.316,0,0,0,35.6.52a7.136,7.136,0,0,0,7.04-4.96,2.685,2.685,0,0,0,.2-.64.285.285,0,0,0-.28-.32c-.32,0-.44.28-.52.48A6.376,6.376,0,0,1,35.8-.24c-4.36,0-4.72-3.52-4.72-9.4ZM31.12-10.4c.16-3.96,1.4-6.16,4.2-6.16,3.12,0,3.4,2.72,3.4,6.16Zm29.36-2.2c0-3.84-4.36-4.72-7.36-4.72-4.56,0-5.56,2-5.56,3.64a2,2,0,0,0,2,2.28,1.721,1.721,0,0,0,1.8-1.8,1.723,1.723,0,0,0-1.84-1.76,1.841,1.841,0,0,0-.52.08c-.04,0-.04-.12-.04-.12,0-.48.88-1.56,4.04-1.56,3.68,0,3.68,1.76,3.68,5.12v2.28a5.274,5.274,0,0,0-3.88-1.28c-4.44,0-7.04,2.8-7.04,6.08,0,3.04,2.32,4.88,5.44,4.88a7.2,7.2,0,0,0,5.56-2.64c.4,1.84,1.84,2.4,3.8,2.4,2.76,0,3.16-1,3.16-2.08,0-.12,0-.52-.36-.52-.4,0-.4.4-.4.52,0,.56-.04,1.24-1.2,1.24-1.28,0-1.28-.8-1.28-3.76ZM56.68-3A4.209,4.209,0,0,1,53.16-.76c-2.12,0-3.4-1.72-3.4-4.6,0-2.2.76-4.36,3.68-4.36a3.938,3.938,0,0,1,3.24,1.4ZM72.04-.64V-8.8c0-3.12.88-7.52,3.72-7.52,1.08,0,1.92.6,1.92,1.16,0,.08,0,.12-.04.12a2.193,2.193,0,0,0-.88-.2A1.712,1.712,0,0,0,75-13.44a1.6,1.6,0,0,0,1.76,1.72c1.36,0,2.08-1,2.08-2.44a2.741,2.741,0,0,0-3-2.92c-2.32,0-3.36,1.88-3.8,3.36v-2.64c0-.28,0-.36-.16-.36a18.045,18.045,0,0,1-2.52.2c-1.24,0-1.8,0-3.88-.04a.408.408,0,0,0-.44.36.411.411,0,0,0,.44.4h1.56c.92,0,1.2.24,1.2,1.48V-.64H65.48a.408.408,0,0,0-.44.36.411.411,0,0,0,.44.4C66.2.12,67.8,0,70.28,0c2.04,0,2.84.08,4.52.12a.411.411,0,0,0,.44-.4.408.408,0,0,0-.44-.36Zm14.76,0V-29.08c0-.24,0-.32-.16-.32a20.417,20.417,0,0,1-2.48.16H80.24c-.28,0-.44.16-.44.36a.411.411,0,0,0,.44.4h1.6c.88,0,1.16.2,1.16,1.48V-.64H80.24a.408.408,0,0,0-.44.36.411.411,0,0,0,.44.4c.72,0,2.36-.12,4.8-.12,2.04,0,2.88.08,4.52.12A.411.411,0,0,0,90-.28a.408.408,0,0,0-.44-.36Zm11.64,0V-16.36c0-.28,0-.36-.16-.36a18.045,18.045,0,0,1-2.52.2c-1.92,0-2.48,0-3.88-.04a.408.408,0,0,0-.44.36.411.411,0,0,0,.44.4h1.56c.92,0,1.2.24,1.2,1.48V-.64H91.88a.408.408,0,0,0-.44.36.411.411,0,0,0,.44.4C92.6.12,94.2,0,96.68,0c2.04,0,2.84.08,4.52.12a.411.411,0,0,0,.44-.4.408.408,0,0,0-.44-.36Zm.28-23.96a2.228,2.228,0,0,0-2.24-2.2,2.185,2.185,0,0,0-2.16,2.2,2.16,2.16,0,0,0,2.16,2.2A2.2,2.2,0,0,0,98.72-24.6ZM104.2-.36c0,.32.12.44.4.44.32,0,.36-.12.36-.44,0-.76,0-1,.24-1,.52,0,2.36,1.88,5.08,1.88,4.04,0,6.56-2.4,6.56-5.76,0-7.32-11-4.4-11-8.4a3.052,3.052,0,0,1,3.28-2.92c2.28,0,3.96.84,5.48,3.8.12.24.16.36.36.36.24,0,.44-.04.44-.24a1.236,1.236,0,0,0-.08-.32,11.745,11.745,0,0,1-.36-3.72.378.378,0,0,0-.4-.4c-.24,0-.36.16-.36.4V-16c0,.36,0,.56-.16.56-.12,0-.24-.08-.56-.32a6.135,6.135,0,0,0-4.28-1.56,4.88,4.88,0,0,0-5.12,4.68c0,7.2,10.8,4.04,10.8,8.92,0,2.36-2.28,3.48-4.36,3.48-2.68,0-5.56-1.88-5.56-4.92,0-.36-.08-.4-.36-.4a.378.378,0,0,0-.4.4Zm16.08,0c0,.32.12.44.4.44.32,0,.36-.12.36-.44,0-.76,0-1,.24-1,.52,0,2.36,1.88,5.08,1.88,4.04,0,6.56-2.4,6.56-5.76,0-7.32-11-4.4-11-8.4a3.052,3.052,0,0,1,3.28-2.92c2.28,0,3.96.84,5.48,3.8.12.24.16.36.36.36.24,0,.44-.04.44-.24a1.236,1.236,0,0,0-.08-.32,11.745,11.745,0,0,1-.36-3.72.378.378,0,0,0-.4-.4c-.24,0-.36.16-.36.4V-16c0,.36,0,.56-.16.56-.12,0-.24-.08-.56-.32a6.135,6.135,0,0,0-4.28-1.56,4.88,4.88,0,0,0-5.12,4.68c0,7.2,10.8,4.04,10.8,8.92,0,2.36-2.28,3.48-4.36,3.48-2.68,0-5.56-1.88-5.56-4.92,0-.36-.08-.4-.36-.4a.378.378,0,0,0-.4.4Zm22-.28V-16.36c0-.28,0-.36-.16-.36a18.045,18.045,0,0,1-2.52.2c-1.92,0-2.48,0-3.88-.04a.408.408,0,0,0-.44.36.411.411,0,0,0,.44.4h1.56c.92,0,1.2.24,1.2,1.48V-.64h-2.76a.408.408,0,0,0-.44.36.411.411,0,0,0,.44.4c.72,0,2.32-.12,4.8-.12,2.04,0,2.84.08,4.52.12a.411.411,0,0,0,.44-.4.408.408,0,0,0-.44-.36Zm.28-23.96a2.228,2.228,0,0,0-2.24-2.2,2.185,2.185,0,0,0-2.16,2.2,2.16,2.16,0,0,0,2.16,2.2A2.2,2.2,0,0,0,142.56-24.6ZM176.6-.64v-9.6c0-3.04-1.08-6.84-5.52-6.84-4.12,0-5.4,3.24-6,4.72a5.149,5.149,0,0,0-5.32-4.72,6.042,6.042,0,0,0-5.8,4.36v-3.64c0-.28,0-.36-.16-.36a16.415,16.415,0,0,1-2.48.2c-1.28,0-1.84,0-3.92-.04a.408.408,0,0,0-.44.36.411.411,0,0,0,.44.4H149c.88,0,1.16.24,1.16,1.48V-.64H147.4a.408.408,0,0,0-.44.36.411.411,0,0,0,.44.4c.72,0,2.36-.12,4.8-.12,2.04,0,2.88.08,4.52.12a.411.411,0,0,0,.44-.4.408.408,0,0,0-.44-.36h-2.76v-8.8c0-3.64,2.12-6.84,4.92-6.84,2.12,0,2.6,1.92,2.6,4.32V-.64h-2.76a.408.408,0,0,0-.44.36.411.411,0,0,0,.44.4c.72,0,2.36-.12,4.84-.12,2,0,2.84.08,4.52.12a.4.4,0,0,0,.4-.4.4.4,0,0,0-.4-.36h-2.8V-9.56c0-3.6,2.16-6.72,4.92-6.72,2.12,0,2.6,1.92,2.6,4.32V-.64h-2.76a.368.368,0,0,0-.4.36.377.377,0,0,0,.4.4c.72,0,2.36-.12,4.84-.12,2,0,2.84.08,4.52.12a.4.4,0,0,0,.4-.4.4.4,0,0,0-.4-.36ZM189.84.52a8.7,8.7,0,0,0,8.48-8.76c0-4.56-3.64-9.08-8.48-9.08-4.88,0-8.48,4.52-8.48,9.08A8.672,8.672,0,0,0,189.84.52Zm0-.76c-3.4,0-4.48-3.92-4.48-8.04,0-4.16,1.08-8.28,4.48-8.28,3.36,0,4.48,4.2,4.48,8.36C194.32-4.08,193.2-.24,189.84-.24Z" transform="translate(-1.36 29.4)" fill="#dbcba6"/>
</svg>
