<svg xmlns="http://www.w3.org/2000/svg" width="17.19" height="3.54" viewBox="0 0 17.19 3.54">
  <path id="icon-divider" d="M-8.6-1.65A1.835,1.835,0,0,0-6.825.12a1.84,1.84,0,0,0,1.8-1.77,1.84,1.84,0,0,0-1.8-1.77A1.835,1.835,0,0,0-8.6-1.65Zm6.81,0A1.835,1.835,0,0,0-.015.12a1.84,1.84,0,0,0,1.8-1.77,1.84,1.84,0,0,0-1.8-1.77A1.835,1.835,0,0,0-1.785-1.65Zm6.81,0A1.835,1.835,0,0,0,6.8.12a1.84,1.84,0,0,0,1.8-1.77A1.84,1.84,0,0,0,6.8-3.42,1.835,1.835,0,0,0,5.025-1.65Z" transform="translate(8.595 3.42)" fill="#dbcba6"/>
</svg>
